ModelForces
version=1
nRows=4
nColumns=157
inDegrees=no

This file contains the forces exerted on a model during a simulation.

A force is a generalized force, meaning that it can be either a force (N) or a torque (Nm).

Units are S.I. units (second, meters, Newtons, ...)
Angles are in degrees.

endheader
time	glut_med1_r	glut_med2_r	glut_med3_r	glut_min1_r	glut_min2_r	glut_min3_r	semimem_r	semiten_r	bifemlh_r	bifemsh_r	sar_r	add_long_r	add_brev_r	add_mag1_r	add_mag2_r	add_mag3_r	tfl_r	pect_r	grac_r	glut_max1_r	glut_max2_r	glut_max3_r	iliacus_r	psoas_r	quad_fem_r	gem_r	peri_r	rect_fem_r	vas_med_r	vas_int_r	vas_lat_r	med_gas_r	lat_gas_r	soleus_r	tib_post_r	flex_dig_r	flex_hal_r	tib_ant_r	per_brev_r	per_long_r	per_tert_r	ext_dig_r	ext_hal_r	glut_med1_l	glut_med2_l	glut_med3_l	glut_min1_l	glut_min2_l	glut_min3_l	semimem_l	semiten_l	bifemlh_l	bifemsh_l	sar_l	add_long_l	add_brev_l	add_mag1_l	add_mag2_l	add_mag3_l	tfl_l	pect_l	grac_l	glut_max1_l	glut_max2_l	glut_max3_l	iliacus_l	psoas_l	quad_fem_l	gem_l	peri_l	rect_fem_l	vas_med_l	vas_int_l	vas_lat_l	med_gas_l	lat_gas_l	soleus_l	tib_post_l	flex_dig_l	flex_hal_l	tib_ant_l	per_brev_l	per_long_l	per_tert_l	ext_dig_l	ext_hal_l	ercspn_r	ercspn_l	intobl_r	intobl_l	extobl_r	extobl_l	femur_lat_meniscii_r.femur_lat_r.force.X	femur_lat_meniscii_r.femur_lat_r.force.Y	femur_lat_meniscii_r.femur_lat_r.force.Z	femur_lat_meniscii_r.femur_lat_r.torque.X	femur_lat_meniscii_r.femur_lat_r.torque.Y	femur_lat_meniscii_r.femur_lat_r.torque.Z	femur_lat_meniscii_r.meniscus_lat_r.force.X	femur_lat_meniscii_r.meniscus_lat_r.force.Y	femur_lat_meniscii_r.meniscus_lat_r.force.Z	femur_lat_meniscii_r.meniscus_lat_r.torque.X	femur_lat_meniscii_r.meniscus_lat_r.torque.Y	femur_lat_meniscii_r.meniscus_lat_r.torque.Z	femur_med_meniscii_r.femur_med_r.force.X	femur_med_meniscii_r.femur_med_r.force.Y	femur_med_meniscii_r.femur_med_r.force.Z	femur_med_meniscii_r.femur_med_r.torque.X	femur_med_meniscii_r.femur_med_r.torque.Y	femur_med_meniscii_r.femur_med_r.torque.Z	femur_med_meniscii_r.meniscus_med_r.force.X	femur_med_meniscii_r.meniscus_med_r.force.Y	femur_med_meniscii_r.meniscus_med_r.force.Z	femur_med_meniscii_r.meniscus_med_r.torque.X	femur_med_meniscii_r.meniscus_med_r.torque.Y	femur_med_meniscii_r.meniscus_med_r.torque.Z	femur_med_tibia_r.tibia_upper_r.force.X	femur_med_tibia_r.tibia_upper_r.force.Y	femur_med_tibia_r.tibia_upper_r.force.Z	femur_med_tibia_r.tibia_upper_r.torque.X	femur_med_tibia_r.tibia_upper_r.torque.Y	femur_med_tibia_r.tibia_upper_r.torque.Z	femur_med_tibia_r.femur_med_r.force.X	femur_med_tibia_r.femur_med_r.force.Y	femur_med_tibia_r.femur_med_r.force.Z	femur_med_tibia_r.femur_med_r.torque.X	femur_med_tibia_r.femur_med_r.torque.Y	femur_med_tibia_r.femur_med_r.torque.Z	femur_lat_tibia_r.tibia_upper_r.force.X	femur_lat_tibia_r.tibia_upper_r.force.Y	femur_lat_tibia_r.tibia_upper_r.force.Z	femur_lat_tibia_r.tibia_upper_r.torque.X	femur_lat_tibia_r.tibia_upper_r.torque.Y	femur_lat_tibia_r.tibia_upper_r.torque.Z	femur_lat_tibia_r.femur_lat_r.force.X	femur_lat_tibia_r.femur_lat_r.force.Y	femur_lat_tibia_r.femur_lat_r.force.Z	femur_lat_tibia_r.femur_lat_r.torque.X	femur_lat_tibia_r.femur_lat_r.torque.Y	femur_lat_tibia_r.femur_lat_r.torque.Z	aACL_R	pACL_R	aPCL_R	pPCL_R	aMCL_R	mMCL_R	pMCL_R	aLCL_R	mLCL_R	pLCL_R	ground_prescribedForce_fx	ground_prescribedForce_fy	ground_prescribedForce_fz	ground_prescribedForce_px	ground_prescribedForce_py	ground_prescribedForce_pz
      0.14481896	     12.64950655	      9.14432509	      9.84579030	      4.20646882	      4.86588632	      5.34452731	      2.45443399	      7.30432973	      6.66025795	      9.49687485	      2.64696921	      9.11036939	      6.52346281	      4.69854979	      3.99443297	      6.77798406	      5.29370457	      3.55284579	      2.70455160	      5.90680351	      8.98750088	      6.76327637	     29.02225951	     20.21166600	      5.79532016	      3.89967742	      7.68236047	     52.49531744	     26.65880260	     26.65547572	     32.99214430	      1.33092400	      1.17361901	     13.98034446	     14.81554392	      6.14681495	      7.23311125	     20.79956613	      6.70109016	     15.94855613	      7.49842708	     10.16044958	      1.95472514	     12.64950655	      9.14432509	      9.84579030	      4.20646882	      4.86588632	      5.34452731	     15.83820589	      6.81421809	     13.69451080	     11.53608665	      2.39913332	      9.11036939	      6.52346281	      4.69854979	      3.99443297	      6.77798406	      5.82702767	      3.55284579	      2.48045909	      5.90680351	      8.98750088	      6.76327637	     29.02225951	     20.21166600	      5.79532016	      3.89967742	      7.68236047	     18.89493960	     10.78052232	     12.47320162	     13.39632621	     27.39387318	     12.73333073	     58.46383465	     53.87313711	      5.70960289	      5.69909720	     14.72228088	      7.91399631	     20.19349676	      3.12401609	      9.93326257	      3.11419948	     39.60191597	     39.60191597	     14.81672461	     14.81672461	     32.05794080	     32.05794080	    138.04502650	     42.89930113	    -15.59087941	      5.35476024	      3.38616080	     56.35421890	   -138.04502650	    -42.89930113	     15.59087941	      0.95666006	     -3.85008151	     -1.74804266	    139.03603702	      5.43237771	     -4.36372998	      1.90945311	     -2.87760787	     56.50715631	   -139.03603702	     -5.43237771	      4.36372998	     -0.18150733	      2.15897664	     -2.34641355	   -450.19345735	   -199.64611871	     52.78949719	     -3.40056529	      6.55405970	     -4.26191510	    450.19345735	    199.64611871	    -52.78949719	     25.08952309	     -8.02389506	    183.66843486	    -85.58488289	    -53.67232777	    -28.96874263	      2.19114533	     -3.23679826	     -0.47739090	     85.58488289	     53.67232777	     28.96874263	    -13.13591148	      2.09266985	     34.93227136	      0.00000000	      0.00000000	    620.27239009	    229.11805443	     27.65712706	      2.85586366	      0.00000000	      0.00000000	      0.00000000	      0.00000000	    -55.00000000	     95.26270000	      0.00000000	      0.03000000	     -0.03000000	      0.00000000
      0.14605007	     12.56649406	      9.08799182	      9.78443175	      4.18158875	      4.83859695	      5.30952605	      2.43736658	      7.23022394	      6.61201553	      9.42037912	      2.62017835	      9.05361880	      6.48523461	      4.66970879	      3.96936407	      6.73260138	      5.27508739	      3.53167988	      2.67561534	      5.87023300	      8.93174635	      6.72071522	     28.91801326	     20.09275982	      5.76030905	      3.88243856	      7.62718808	     52.35954169	     26.41109870	     26.44246873	     32.78824635	      1.29543830	      1.17335181	     14.07679871	     14.73812756	      5.99705118	      7.12561071	     20.64514776	      6.72474038	     15.91966081	      7.48640719	     10.55119072	      2.00550803	     12.56649406	      9.08799182	      9.78443175	      4.18158875	      4.83859695	      5.30952605	     15.72632501	      6.76978002	     13.59865808	     11.46630614	      2.38500884	      9.05361880	      6.48523461	      4.66970879	      3.96936407	      6.73260138	      5.79884643	      3.53167988	      2.46560240	      5.87023300	      8.93174635	      6.72071522	     28.91801326	     20.09275982	      5.76030905	      3.88243856	      7.62718808	     18.76330490	     10.71208005	     12.39285541	     13.30998324	     27.19613949	     12.64118172	     58.04262825	     53.68848284	      5.66305548	      5.65452378	     14.62118232	      7.85754816	     20.07335940	      3.10570629	      9.86234475	      3.09205793	     39.36716596	     39.36716596	     14.72215060	     14.72215060	     31.97184093	     31.97184093	    136.02963873	     42.30396625	    -15.38292539	      5.28544693	      3.33707585	     55.53167401	   -136.02963873	    -42.30396625	     15.38292539	      0.94222042	     -3.79478228	     -1.71976758	    135.94794532	      5.08039705	     -4.22538300	      1.84408877	     -2.81312212	     55.25827053	   -135.94794532	     -5.08039705	      4.22538300	     -0.17187722	      2.10846280	     -2.30359757	   -446.43696894	   -198.02760637	     52.09261421	     -3.36638340	      6.49231021	     -4.21720952	    446.43696894	    198.02760637	    -52.09261421	     24.77734471	     -7.95881862	    182.13562770	    -84.83235178	    -53.19871749	    -28.70869876	      2.17185027	     -3.20915097	     -0.47188320	     84.83235178	     53.19871749	     28.70869876	    -13.01830656	      2.07431608	     34.62536974	      0.00000000	      0.00000000	    619.62335397	    229.09716199	     28.10934458	      3.30128542	      0.00000000	      0.00000000	      0.00000000	      0.00000000	    -55.00000000	     95.26270000	      0.00000000	      0.03000000	     -0.03000000	      0.00000000
      0.14728118	     12.48485893	      9.03259040	      9.72409096	      4.15711607	      4.81175872	      5.27510546	      2.42073192	      7.15594505	      6.56658366	      9.35635455	      2.59509456	      8.99780950	      6.44763052	      4.64134569	      3.94471267	      6.68796965	      5.25719077	      3.51086156	      2.64760374	      5.83427093	      8.87691915	      6.67886262	     28.81552094	     19.97585281	      5.72587475	      3.86549217	      7.57287547	     52.22889659	     26.16315920	     26.23369265	     32.59585786	      1.28412794	      1.17706409	     14.18237718	     14.67065088	      5.84792734	      7.01830168	     20.49212970	      6.74055461	     15.88710299	      7.47061518	     10.92369178	      2.05904863	     12.48485893	      9.03259040	      9.72409096	      4.15711607	      4.81175872	      5.27510546	     15.61621999	      6.72607989	     13.50434990	     11.39767628	      2.37111529	      8.99780950	      6.44763052	      4.64134569	      3.94471267	      6.68796965	      5.77113346	      3.51086156	      2.45098989	      5.83427093	      8.87691915	      6.67886262	     28.81552094	     19.97585281	      5.72587475	      3.86549217	      7.57287547	     18.63380121	     10.64478568	     12.31385665	     13.22509483	     27.00139413	     12.55042951	     57.62799598	     53.50688127	      5.61722235	      5.61065762	     14.52173648	      7.80200231	     19.95515730	      3.08770389	      9.79251808	      3.07025932	     39.13626216	     39.13626216	     14.62914755	     14.62914755	     31.88719684	     31.88719684	    137.87011194	     42.75601063	    -15.61338033	      5.36872240	      3.38111541	     56.28170037	   -137.87011194	    -42.75601063	     15.61338033	      0.95172473	     -3.84548110	     -1.74217654	    137.53762141	      5.45826123	     -4.25457423	      1.86305401	     -2.84644074	     55.90344167	   -137.53762141	     -5.45826123	      4.25457423	     -0.17717497	      2.13206378	     -2.32051549	   -446.71155402	   -198.05423648	     52.00728999	     -3.36500598	      6.49440006	     -4.21531238	    446.71155402	    198.05423648	    -52.00728999	     24.74521430	     -7.96752004	    182.24859252	    -84.50768119	    -52.97911026	    -28.57208905	      2.16255812	     -3.19697170	     -0.46923289	     84.50768119	     52.97911026	     28.57208905	    -12.95720192	      2.06624690	     34.49317522	      0.00000000	      0.00000000	    618.60998585	    227.94355881	     27.71482614	      2.87309418	      0.00000000	      0.00000000	      0.00000000	      0.00000000	    -55.00000000	     95.26270000	      0.00000000	      0.03000000	     -0.03000000	      0.00000000
      0.14892579	     12.37791279	      8.96000722	      9.64504077	      4.12504730	      4.77659664	      5.23001263	      2.39678940	      7.05539339	      6.50831287	      9.26545918	      2.56016805	      8.92469583	      6.39835179	      4.60418749	      3.91242039	      6.62949680	      5.23061743	      3.48358291	      2.60911092	      5.78716118	      8.80509594	      6.62403710	     28.68128700	     19.82273854	      5.68075765	      3.84330129	      7.50163811	     52.05673567	     25.83637455	     25.96223540	     32.36268719	      1.23841313	      1.17792169	     14.31533269	     14.59487286	      5.64970961	      6.87443505	     20.29984528	      6.74818874	     15.83500019	      7.45032787	     11.36523085	      2.13586761	     12.37791279	      8.96000722	      9.64504077	      4.12504730	      4.77659664	      5.23001263	     15.47185465	      6.66883141	     13.38073174	     11.30775650	      2.35290880	      8.92469583	      6.39835179	      4.60418749	      3.91242039	      6.62949680	      5.73482910	      3.48358291	      2.43184318	      5.78716118	      8.80509594	      6.62403710	     28.68128700	     19.82273854	      5.68075765	      3.84330129	      7.50163811	     18.46406418	     10.55664509	     12.21038592	     13.11391982	     26.74581940	     12.43133679	     57.08417287	     53.26895577	      5.55709109	      5.55314248	     14.39141994	      7.72918207	     19.80021571	      3.06412526	      9.70090698	      3.04166327	     38.83369144	     38.83369144	     14.50731137	     14.50731137	     31.77634938	     31.77634938	    135.82167708	     41.88939866	    -15.47312243	      5.33314565	      3.32945522	     55.44695355	   -135.82167708	    -41.88939866	     15.47312243	      0.92838475	     -3.78611229	     -1.72008149	    133.86960802	      5.04562042	     -4.07465298	      1.78199127	     -2.76965063	     54.41943297	   -133.86960802	     -5.04562042	      4.07465298	     -0.16835124	      2.07154795	     -2.26898055	   -442.04677133	   -196.02464701	     51.23321482	     -3.32437131	      6.42028072	     -4.16062306	    442.04677133	    196.02464701	    -51.23321482	     24.39464216	     -7.88712229	    180.34531364	    -83.51598049	    -52.34534082	    -28.22540731	      2.13675617	     -3.16030365	     -0.46244112	     83.51598049	     52.34534082	     28.22540731	    -12.80035582	      2.04202414	     34.08880096	      0.00000000	      0.00000000	    617.74210326	    227.80939412	     28.21695936	      3.36912266	      0.00000000	      0.00000000	      0.00000000	      0.00000000	    -55.00000000	     95.26270000	      0.00000000	      0.03000000	     -0.03000000	      0.00000000
